<svg id="Layer_1" data-name="Layer 1" xmlns="http://www.w3.org/2000/svg" xmlns:xlink="http://www.w3.org/1999/xlink" viewBox="0 0 538.41 765.25"><defs><style>.cls-1{fill:#24385b;}.cls-2{fill:#dfecfd;}.cls-12,.cls-15,.cls-3{fill:#b8c5d7;}.cls-4{fill:#1f2f4f;}.cls-5{fill:#dfecfc;}.cls-6{fill:#1f2e4f;}.cls-7{fill:#1f2d4f;}.cls-8{fill:#1f2f50;}.cls-9{fill:none;}.cls-10{fill:#b9c5d7;}.cls-11{fill:#dfebfc;}.cls-12{opacity:0.26;}.cls-13{fill:url(#linear-gradient);}.cls-14{fill:url(#linear-gradient-2);}.cls-15{opacity:0.5;}.cls-16{fill:#fff;}.cls-17{fill:#80cde7;}</style><linearGradient id="linear-gradient" x1="305.09" y1="370.13" x2="607.64" y2="237.06" gradientTransform="translate(-21.78 13.23) rotate(2.36)" gradientUnits="userSpaceOnUse"><stop offset="0.43" stop-color="#29559f"/><stop offset="0.95" stop-color="#75daf2"/></linearGradient><linearGradient id="linear-gradient-2" x1="303.91" y1="403.92" x2="547.88" y2="205.85" gradientTransform="translate(-292.58 -144.14) rotate(2.36)" gradientUnits="userSpaceOnUse"><stop offset="0.1" stop-color="#29559f"/><stop offset="0.19" stop-color="#3264a8"/><stop offset="0.37" stop-color="#488cc1"/><stop offset="0.62" stop-color="#6ccbe9"/><stop offset="0.67" stop-color="#75daf2"/></linearGradient></defs><path class="cls-1" d="M808.92,662.77a17.57,17.57,0,0,0-2.77-6.47c.62-4.7.61-8.22,0-10.93-.54-3-2.07-6.45-4.79-10.74-1.13-7.52-2-10.47-2.68-12.12-1.6-4.89-5.87-9.49-13.32-14.35-1.83-4.55-3.7-7.63-5.8-9.6-2.34-2.42-6.05-4.38-11.63-6.16a6.37,6.37,0,0,0-3.67-.07c-9.41,2.59-20,8.25-31.52,16.8a8,8,0,0,0-2.31,2.37c-1.17.08-2.47.22-3.89.42,15.39-16.38,27.58-30.48,36.25-41.94a147.93,147.93,0,0,0,12.58-19,201.72,201.72,0,0,0,14.49-31.61,124.74,124.74,0,0,0,6.65-29.18,108.58,108.58,0,0,0-3.66-44.1l0-.09a169.16,169.16,0,0,0-25.34-49.75l-.18-.23c-11.77-14.73-24.35-26.59-37.4-35.25a109.55,109.55,0,0,0-41.73-17.05c-14.36-2.86-30.41-3-47.7-.31-17,2.62-35.81,8-55.76,16-14.4,5.54-26.52,12.86-36,21.77a83.19,83.19,0,0,0-21.43,32.31,1.59,1.59,0,0,0-.07.2c-5.76,17.34-9.51,33.59-11.17,48.43l-12-27.27a54,54,0,0,0,4.45-11.64v-.05a.83.83,0,0,0,0-.15,62,62,0,0,0,2-17.08A192.45,192.45,0,0,0,509,385.8a5,5,0,0,0-.09-.56,68.89,68.89,0,0,0-3.57-11.84c-.06-.15-.12-.29-.19-.43-2.35-4.76-4.58-7.91-7-9.89a39.58,39.58,0,0,0-9.14-6l4-6.22c3-4.64,6.14-9.36,9.14-13.92,2.16-3.27,4.4-6.65,6.59-10l.35-.52a15.63,15.63,0,0,0,2.91-6.63,6.43,6.43,0,0,0-7-7.49l-19.48,2L473,315.6h-.08c-12.52,1.44-25.44,2.93-38.38,4.4-1.47-2.31-3.08-4.79-4.8-7.4a6.44,6.44,0,0,0-5-2.89c-14.57-.86-19.8-.21-22.44.37-1.56.3-3,.62-4.42,1,6-10.18,11.91-20.33,17.75-30.28L426.09,263q2.32-4,4.66-8c2.91-5,5.92-10.15,8.91-15.2.31-.51.58-1,.82-1.45l.13-.25a10.28,10.28,0,0,1,.53-.91c.13-.18.26-.37.38-.56l1.62-2.71c.11-.19.22-.38.31-.57s.27-.38.39-.58l1.74-2.89,0,0,.13-.21,0,0,11.1-19.05,11-19a13.85,13.85,0,0,0,.8-1.59h0a6.91,6.91,0,0,0-.45-7.25l-.09-.14a6.43,6.43,0,0,0-3.49-2.85l-.59-.21a26,26,0,0,0-3.07-1c-27.88-6.49-57.56-13.39-87-20.18-.21,0-.5-.13-.81-.22a12.67,12.67,0,0,0-9.34.29,6.45,6.45,0,0,0-3.28,3.53l-.36.92c-.23.6-.47,1.21-.71,1.85q-4,10.82-8,21.64c-7.48,20.35-15.22,41.4-22.86,62.08-3.51,9.52-7.12,19.19-10.61,28.53q-2.11,5.64-4.21,11.28l0,.07L312,293.52c-1.1,3.07-2.24,6.25-3.38,9.36C302.71,319,296.81,335,291.27,350c-.45,1.23-.94,2.45-1.46,3.74-.22.57-.45,1.14-.67,1.7a1.66,1.66,0,0,0-.06.16q-1.8,4.94-3.59,9.87c-3.44,9.44-7,19.2-10.42,28.82-.28.79-.62,1.62-1,2.49A29,29,0,0,0,271.5,406a6.47,6.47,0,0,0,1.19,4.19,8.77,8.77,0,0,0,5.86,3.71,11.2,11.2,0,0,0,4-.17l.31-.06c10.57-1.65,20.91-3.28,32.37-5.09l.35-.07c.58-.12,1.14-.25,1.67-.38.95-.22,1.85-.43,2.68-.56l6-1c-.14.79-.27,1.58-.38,2.36l-.34,1.93a6.77,6.77,0,0,0-.09,1.09l-.63,6.44c-5,9.63-7.94,16.94-9,22.31-1.37,5.61-1.64,13.51-.84,24.15a6.48,6.48,0,0,0,1.46,3.61h0c.09.12.19.23.29.34l5.49,5.78c-.08.8-.16,1.58-.23,2.33,0,.29,0,.57-.07.85-.1,1.11-.18,2.19-.25,3.22,0,.26,0,.52-.05.77a63.52,63.52,0,0,0,.14,12c0,.16,0,.32.07.47.35,2.5.78,5.06,1.28,7.6a157.29,157.29,0,0,0,4.49,17.17,6.47,6.47,0,0,0,3.79,4l1.9.73a94.81,94.81,0,0,0,12.61,4.35c1.41.37,2.78.69,4.13,1l-6.89,17.17c-.29.72-.56,1.44-.83,2.13s-.59,1.55-.9,2.3a8.4,8.4,0,0,0,4.43,11.16h0a8.37,8.37,0,0,0,10.5-2.81l0,0c.77-1.11,1.5-2.22,2.2-3.29l.56-.85,15.43-23.47c16.72,13.65,34.27,27.39,52.22,40.87l.12.1,4,3,.54.41,4.73,3.51.58.43c1.59,1.18,3.17,2.35,4.77,3.52l.52.39,4.88,3.57.37.27,5.09,3.7h0l0,0,5.13,3.7.32.23,4.95,3.55.59.41q2.4,1.73,4.82,3.43l.74.52,3.67,2.59a.71.71,0,0,0,.14.1c20.66,14.55,42.28,29.16,64.37,43.49-.82,1.37-1.59,2.72-2.29,4s-1.42,2.61-2.09,4c0,0,0,.09-.07.14l0,.09h0l-.14.3-.36.77-.16.36c-.11.26-.22.52-.34.78l-.14.33-.45,1.09a114.59,114.59,0,0,0-6,21l0,.11c0,.08,0,.16,0,.24-1,5.31-1.9,11.17-2.56,17.41l0,.25h0c0,.22,0,.44,0,.66C504,712.08,490.76,720.8,482.85,726.8c-8.72,6.36-20.14,16.1-33.94,29a7.4,7.4,0,0,0-.73.75l-2.27,2.77a6.57,6.57,0,0,0-1.68,2.09l-2.46,2.95a301.82,301.82,0,0,0-34.43,48.21c-3.59,6.19-7.84,14.7-12.64,25.32a6.67,6.67,0,0,0-1.05,1.74l-1.63,4c-15.07.62-26.86,2.71-35.1,6.23a48.28,48.28,0,0,0-14.78,10.2A69.35,69.35,0,0,0,331.29,874a57.48,57.48,0,0,0-7.46,19.11,24.59,24.59,0,0,0,0,9,13,13,0,0,0,5,8.17,6.39,6.39,0,0,0,3.31,1.19c1.1.08,27.1,1.86,45.4,2h2.06c1.39,0,2.7,0,3.9,0,18.05-.33,61.48-4.95,75-8a12.48,12.48,0,0,0,8.08-6c2.78-4.66,3.42-11.55,1.86-19.28l30.37-32.39a7.1,7.1,0,0,0,.56-.67l31.9-34.36.34-.34,45.76-49.09h.39c.22,0,.44,0,.66,0h.23l3.16-.18.81-.05,3.34-.17.26,0,3.1-.14.8,0,3.25-.13.44,0,2.9-.1.76,0,3.18-.09.54,0,2.76-.06.73,0,3.11-.06h.62l2.67,0h7.64l3,0h.65l2.46,0,.79,0c1,0,2,0,2.95.06H629l2.57.06.79,0,2.25.07,13.59,14a.23.23,0,0,1,.07.07l8.15,9.18,3.17,10.43a2.29,2.29,0,0,0,.08.28l11.72,38.2c-2.79,6.16-3.92,12.78-3.06,18.06a15.44,15.44,0,0,0,2.67,6.69,11.29,11.29,0,0,0,6.85,4.44c11,2.33,46.63,5.88,61.41,6.14,1.45,0,3.09,0,4.9,0,15-.11,36.25-1.48,37.15-1.54a6.43,6.43,0,0,0,3.18-1.08c2.45-1.65,6.31-5.77,4.72-14.8a44,44,0,0,0-6.34-15.25,55.57,55.57,0,0,0-9.1-11,40.76,40.76,0,0,0-12.43-8c-6.13-2.45-14.59-4-25.23-4.65a155.08,155.08,0,0,0,1.07-17.47c.07-11.28-1.26-24.88-3.92-40.43l-.49-3.09-.15-3.8a6.44,6.44,0,0,0-2.5-5.15l-44.56-34.49.79.41.11.06,13.05,6.86a6.46,6.46,0,0,0,4.23.62l11.73-2.29.22,0,37.56-7.32a6.5,6.5,0,0,0,1.61-.54c11.3-3.21,19.08-6.35,23.75-9.56a35.73,35.73,0,0,0,6.64-5.32c7.25-3.08,14.48-8.54,21.53-16.25a6.42,6.42,0,0,0,1.54-3C809.25,668.35,809.45,665.24,808.92,662.77ZM701,643.61l-20.06-12.84a103.77,103.77,0,0,0,14.72-2.65,60.32,60.32,0,0,0,8.66-2.76,33.62,33.62,0,0,0-3,9.76A32.1,32.1,0,0,0,701,643.61Z" transform="translate(-270.79 -157.37)"/><g id="layer6"><path class="cls-2" d="M790.12,489.47q-2.48,26.32-20.39,58.41a141.9,141.9,0,0,1-12.06,18.21q-13.3,17.58-37.42,43.12-14.47,10-26.23,12.67-10.95,3.11-41.87,4.74L624,621.19h0L576.26,612l-8.94-3.37q-15.63-18.44-21.49-27.22Q528.31,555,524.56,534.08q-3.51-13-3.7-35.05,0-4.66.07-9.75.18-8.41.77-18,1.42-25,11.6-55.64,12.69-34.51,53.78-50.31Q645.9,341.81,687,350q41.06,7.19,75.29,50a162,162,0,0,1,24.38,47.86A101.6,101.6,0,0,1,790.12,489.47Z" transform="translate(-270.79 -157.37)"/><path class="cls-3" d="M757.67,566.09q-13.3,17.58-37.42,43.12-14.47,10-26.23,12.67-10.95,3.11-41.87,4.74L624,621.19h0L576.26,612l-8.94-3.37q-15.63-18.44-21.49-27.22Q528.31,555,524.56,534.08q-3.51-13-3.7-35.05,0-4.66.07-9.75l.08-.12S624.89,654.16,757.67,566.09Z" transform="translate(-270.79 -157.37)"/></g><g id="layer7"><path class="cls-1" d="M774,504.82c-.79,2.68-1.66,5.38-2.61,8.07A199.15,199.15,0,0,1,757.22,544q-18.75,33.07-32.65,48.21-4.67,5.29-16.8,13.19Q703.63,608,695.51,610q-30.1,6.3-63.41.66-49.56-10.59-70.59-22.88Q550.74,583,544.81,513q0-33.28,4.41-54.43A107.17,107.17,0,0,1,552.58,446a75.68,75.68,0,0,1,5.47-12.34l3.54-5.61a77.2,77.2,0,0,1,19.72-18.66,168.71,168.71,0,0,1,26.23-14.22q14.34-6.29,29.49-12l.55.71,25.72,21.42,53.41,15.77,34-10.68,1.7,2.49q23.07,33,24.88,63.38Q777.43,494.95,774,504.82Z" transform="translate(-270.79 -157.37)"/></g><path class="cls-4" d="M771.43,512.89A199.15,199.15,0,0,1,757.22,544q-18.75,33.07-32.65,48.21-4.67,5.29-16.8,13.19Q703.63,608,695.51,610q-30.1,6.3-63.41.66-49.56-10.59-70.59-22.88Q550.74,583,544.81,513q0-33.28,4.41-54.43S595.31,426.8,641,472.33c32.13,32,56.18,16,69.42,11.37C723.38,479.14,758.83,473,771.43,512.89Z" transform="translate(-270.79 -157.37)"/><g id="layer3"><path class="cls-1" d="M460.78,368.32l-96.34-17.13-9.28,13.25,4.28,40.7-27.79,6.54-1,10.53-7.23,41-2.28,1.21,8.1,8.53,1.61,3.12,37.73,31.72L372.23,521q3.94,3.91,4.46,3.62L417,521.17l75.41-67.4-31.63-85.45" transform="translate(-270.79 -157.37)"/><path class="cls-1" d="M736.35,614.49l-.09.06c-.25,0-.92,1.2-2,3.53q-.07-.41-4.77,25.88-6.76,1.29-9.36,2.84c-1.62,1.11-2.47,1.86-2.56,2.25a5.81,5.81,0,0,0-.88,2.1,8.8,8.8,0,0,0-.12,2.65,21.7,21.7,0,0,0,1.07,4.87,111.71,111.71,0,0,0,5.86,13.8q2.46,9.36,4.16,12.06,3.58,6.16,7.64,8.58,5.13,3.64,15.64,8.18,17.68-4.86,24.11-9.36a29,29,0,0,0,9.34-9.19l1.61-3a33.5,33.5,0,0,0,2.21-7.06,56.46,56.46,0,0,0,.74-16q.09-2.26-2.17-11.26a31.69,31.69,0,0,0-2.5-6,11.44,11.44,0,0,0-10.49-6.79q-5.28-.3-17.83,6l17.18-21-36.79-3.13" transform="translate(-270.79 -157.37)"/><path class="cls-5" d="M270.79,453.65h0" transform="translate(-270.79 -157.37)"/><path class="cls-1" d="M453.17,760.59,450,764.43l8.23,5.88,35.1,73.75,34.58-37.23q-43.2-27.9-51.18-32.78-6.48-4.29-23.57-13.46" transform="translate(-270.79 -157.37)"/><path class="cls-1" d="M726.14,748.7l.19,4.82-36.8,16.75q-1.56,11.16-5.36,15.36-5.49,7.05-12,8.45a36.06,36.06,0,0,1-6.22.74l-3.77-12.41-9.52-10.73a10.52,10.52,0,0,1,2.9-7.95,27.56,27.56,0,0,1,5.48-3.87,45.4,45.4,0,0,1,8.43-4.09,10.13,10.13,0,0,1,7.66.4q2.89,1,10.41,7.24l34.57-13.65,4.07-1.06" transform="translate(-270.79 -157.37)"/><path class="cls-6" d="M414.85,424.37l-.57,2q-3.28,13.74-9.67,18.3-4.47,3.65-18.16,3.64-2.85,0-6.1-.16h0q1.33,17.42,0,22.95-1,6.11-6.84,12,6.92.15,9.49,2.83t3.33,8.72q.84,7.11,0,22.81a46.82,46.82,0,0,0-6.07,6.81L417,521.17l63-56.28a5,5,0,0,0-3.11-1.92l-2.17-.27h-.6a28.05,28.05,0,0,0-4.75.44h-.08q-1.54,0-23.46,5.84A51.22,51.22,0,0,1,438,470.1c-.42,0-.84,0-1.25,0a20.49,20.49,0,0,1-7.41-1.18c-.81-.09-2.55-1.1-5.24-3q-3.42-2.1-9.2-13.25A119.23,119.23,0,0,0,420.5,430l2-3.58Z" transform="translate(-270.79 -157.37)"/><path class="cls-7" d="M528.7,700.66h-.09l.47,3.57,1.85.87q7.88,7.9,9.59,8.95a6,6,0,0,0,3.21,1.55c.16,0,.43-.1.84-.45l1-1.77q.49-.5.66-.39.68-.11,2.25,1.8,4.88,6.13,24.77,42.09l4.86,0,.86-.25q-5.1-17.26-8.34-25.33A57.39,57.39,0,0,0,562,715.37a29.35,29.35,0,0,0-10.78-8q-4.44-2.13-22.51-6.76" transform="translate(-270.79 -157.37)"/><path class="cls-8" d="M669.65,701.26l.21,2.36.2,2.36-28.37,50.77-6.34-.81,32.37-51.86,1.93-2.82" transform="translate(-270.79 -157.37)"/><path class="cls-5" d="M628.38,922.63h0" transform="translate(-270.79 -157.37)"/></g><g id="layer4"><path class="cls-9" d="M575.09,611.2v.12h0a.2.2,0,0,1,0-.05.36.36,0,0,1,0-.11.41.41,0,0,1,0-.1h0l0,.05v.09" transform="translate(-270.79 -157.37)"/><path class="cls-9" d="M529.38,700.93h0a.2.2,0,0,1,0,.07v0l0-.12a.15.15,0,0,0,0-.07v0s0,0,0,0v.07" transform="translate(-270.79 -157.37)"/><path class="cls-2" d="M576,611.06l-3.48,3.8q-23.26,24.74-32.29,41.54-8.53,15-11.65,44.26,24.72,8.93,32.55,18.77,8.63,8.88,16.83,37.41,31-1.86,57.5-.88l34.22-54.08q1.21-43.82-11.07-73.1l-3.75-8.64L576,611.06Z" transform="translate(-270.79 -157.37)"/><path class="cls-10" d="M656.5,620.87v2.31c-5.94,14.19-10.62,20.73-28.57,21.79a60.94,60.94,0,0,0-18.36-8.11,6.12,6.12,0,0,0-2-.09,8.24,8.24,0,0,0-1.89.19c-.61,0-2.34-1.1-5.16.93a3,3,0,0,1-1.5.32,8.22,8.22,0,0,1-1.23-.11q-2.47-.18-10.77-5.7l-8.26-9.56h0l-2.06,2.54q-21.21,25.46-25.3,39.77Q546,679.78,545.69,708a141.68,141.68,0,0,0-16.3-7h0a.2.2,0,0,1,0,.07v0a.44.44,0,0,0,0-.09h0a.2.2,0,0,0,0-.07s0,0,0,0h0a.15.15,0,0,1,0,.07s0,0,0,0l-.77-.28q3.12-29.29,11.65-44.26,9-16.8,32.29-41.54l3.48-3.8,78.86,9.08,1,.43Z" transform="translate(-270.79 -157.37)"/><path class="cls-10" d="M657,625Z" transform="translate(-270.79 -157.37)"/><path class="cls-3" d="M570.55,735.21A190.8,190.8,0,0,1,578,756.84q20.29-1.22,38.67-1.22,9.68,0,18.83.34l9.12-14.41h0Q630.53,744.64,623,745q-4.43.32-8.91.31a133,133,0,0,1-14.43-.79,102.41,102.41,0,0,1-10.8-1.76l-2.4-.58c-1.55-.41-3-.85-4.36-1.33a51.14,51.14,0,0,1-11.54-5.64Z" transform="translate(-270.79 -157.37)"/><path class="cls-3" d="M644.61,741.55Z" transform="translate(-270.79 -157.37)"/><path class="cls-9" d="M570.88,668.06l.38.72.39.72-.77-1.44" transform="translate(-270.79 -157.37)"/><path class="cls-1" d="M538.29,660.19c-.52,1.1-1,2.24-1.5,3.43a123.21,123.21,0,0,0,17.13,6.11,101.46,101.46,0,0,0,17.55,2.47l-.17-3.34,0-.08,0,.08,0-.39-.2,0h0l-1.25-.11A96.47,96.47,0,0,1,554,666a101.68,101.68,0,0,1-15.72-5.8Z" transform="translate(-270.79 -157.37)"/><path class="cls-1" d="M640.24,683.59l-2.08,3.49c5.1,1.33,10.2,2.67,15.84,3.71,5,.93,10.37,1.63,15.82,2.31,0-1.37,0-2.72-.05-4.07h0c-6.4-.75-12.68-1.51-17.45-2.37A91.24,91.24,0,0,1,640.24,683.59Z" transform="translate(-270.79 -157.37)"/><path class="cls-1" d="M650.84,619.68Z" transform="translate(-270.79 -157.37)"/></g><g id="layer8"><path class="cls-5" d="M574.53,756.85l-.93-3.17q-5.67-21-14.11-30.94-7.18-9.18-30.42-18.58-30,18.38-42.38,27.81-12.88,9.38-33.53,28.62,24.55,15.31,33,24.42,9.12,8.87,19.63,29.48,12-5.82,21.11-6.51l47.66-51.13Z" transform="translate(-270.79 -157.37)"/><path class="cls-5" d="M449.84,764.69l-3.16,3.79q-20.7,24-33.75,47.24-11.7,20.14-32.57,73.33l70.11.8,43.62-46.51q.09-11.88,8.94-26.62c-1-1.86-2.06-3.72-3.11-5.57q-9.93-18.3-20.39-27.66-3.31-3.29-12.65-9.46-8.2-5.1-16.9-9.76l-.14.42Z" transform="translate(-270.79 -157.37)"/><path class="cls-5" d="M670,705.23l-32.39,51,15.19,15.65q3-10.65,15-15.27a12.28,12.28,0,0,1,8.49.33q4.62,1.81,11.72,8l38.15-16.24L670,705.23Z" transform="translate(-270.79 -157.37)"/><path class="cls-5" d="M730.71,796.08a161.71,161.71,0,0,1-1.38,19.82q-.36,3-.8,6.17-1.14,8.23-2.86,18.16h0c0,.26-.09.51-.14.77l-45.33.4-14.41-46.95q13.66-3.81,17.27-8.19,4.19-3.93,6.08-16.72l3.32-1.46,33.85-14.92.57,3.54Q730.81,779.62,730.71,796.08Z" transform="translate(-270.79 -157.37)"/><path class="cls-3" d="M502.47,815.71c-34.34,28.49-48.6,55.82-62.91,62.72-11.84,6.72-34.13.46-46.73.46a72,72,0,0,1-8.26-.48q-2.06,5.15-4.21,10.64l70.11.8,43.62-46.51q.09-11.88,8.94-26.62l-.55-1Z" transform="translate(-270.79 -157.37)"/><path class="cls-3" d="M567.4,735.82,506.93,812l-1.72,1.43c.19.35.37.71.55,1.06q12-5.82,21.11-6.51l47.66-51.13-.93-3.17a121.3,121.3,0,0,0-6.2-17.86Z" transform="translate(-270.79 -157.37)"/><path class="cls-3" d="M692.46,768.08l-3.32,1.46q-1.89,12.8-6.08,16.72-3.6,4.38-17.27,8.19L680.2,841.4l45.33-.4c.05-.26.09-.51.14-.77h0q-17.17-.91-25.41-4-8-2.93-11-9.77-6.56-13.43,3.24-58.36Z" transform="translate(-270.79 -157.37)"/><path class="cls-3" d="M646,743l-8.44,13.29,15.19,15.65q3-10.65,15-15.27a12.85,12.85,0,0,1,3.83-.6h.44Z" transform="translate(-270.79 -157.37)"/><path class="cls-3" d="M685.3,762.68h0c.87.7,1.77,1.45,2.7,2.26l1-.41-3.68-1.85Z" transform="translate(-270.79 -157.37)"/></g><g id="layer9"><path class="cls-5" d="M515.38,476.63l-18.56-42.28C460.23,473,437.32,498,424,506.79q-21.36,16.05-49.31,16.61,77,63.21,171.25,124a454.91,454.91,0,0,1,30-36.13L515.38,476.63" transform="translate(-270.79 -157.37)"/><path class="cls-11" d="M333.45,517.09l2,.76q12.54,5.26,22.32,5.83,9.61.26,23.88-4.07,1.89-11.42,1.48-16.57-.18-5.25-3.23-14.64-15.75-2.53-24.36-5.35-8.46-2.54-26.84-10.72-1.71,14.82-.75,21a141,141,0,0,0,5.53,23.74" transform="translate(-270.79 -157.37)"/><path class="cls-11" d="M328.27,467.33l-7.15-2.89q-1.14-14.94.7-22.29,1.4-7.36,9-21.82L375,449.17a9.93,9.93,0,0,1,4.4,9.76,94.37,94.37,0,0,1-3,14.79q-2.06,6.31-5.61,7.11-3,.92-9.12-1.26L347.5,475l-19.23-7.67" transform="translate(-270.79 -157.37)"/><path class="cls-11" d="M411.51,427.11q-3.87,20.94-26.76,17.66a61.39,61.39,0,0,1-6.67-1.64,197.51,197.51,0,0,1-19.93-10.35q-6.28-3.94-14.41-10.2L331.58,412l.35-2c.18-1.21.39-2.39.6-3.55a80.93,80.93,0,0,1,2.65-10.37,62.8,62.8,0,0,1,3.63-8.8q4.13-8.61,19.39-27.26,17.1,14.08,26.11,23,2.83,2.73,6.68,6.71,8.22,8.5,21,22.74A69.47,69.47,0,0,1,411.51,427.11Z" transform="translate(-270.79 -157.37)"/><path class="cls-11" d="M363.66,352.32l2.13-3.18q13.68-21.37,25-28.3,4.28-2.86,12.79-4.45,5.13-1.17,20.76-.25,11.49,17.44,15.29,25.56,4.14,8.24,8.51,23.49,4.41-6.76,6.73-8.3c1.54-1.25,3.94-1.88,7.18-1.9L458,373.22l-12,10.69-24.74,25.43-57.59-57" transform="translate(-270.79 -157.37)"/><path class="cls-11" d="M655.88,622.41l1,2.8a194.43,194.43,0,0,1,9.52,31.47q2.45,11.77,3,36.69l33.08,17.38L752,701.1Q734.82,689,731.05,680.89q-4.63-7.75-4.26-27.38L700,650.67l-44.15-28.26Z" transform="translate(-270.79 -157.37)"/><path class="cls-11" d="M735.75,617.84,730.08,652q-9.27.91-12.46.59-4.71-.36-6.57-1.83a8.64,8.64,0,0,1-3.31-5.2,24.76,24.76,0,0,1-.07-9.41q1.59-10.18,7.48-13.76,2.58-1.86,8.56-3.5a63.06,63.06,0,0,1,12-1.07" transform="translate(-270.79 -157.37)"/><path class="cls-11" d="M802,671.4Q785,690,768.29,688.52a16.58,16.58,0,0,1-9.4-4.46q-3.23-3.51-2.1-6.37l1.15-2.84,16.4-9.73-24.53,6.26q-4-5.4-2.79-8.59a30,30,0,0,1,1.12-4l29.48-22.73-36.13,21.18q1.26-14.26,5-20.77l22.81-16.67-24.2,11a44.76,44.76,0,0,1-8.47-15.48l-.32-.84q16.53-12.35,29.66-16,6.82,2.18,9.07,4.61,2.46,2.21,5.08,9.32,10.88,6.69,12.52,12.31,1.17,2.51,2.55,12.18,4.06,6.15,4.64,9.69.84,3.45-.43,11.25c1.9,2.53,3,4.56,3.19,6.09S802.75,667.93,802,671.4Z" transform="translate(-270.79 -157.37)"/><path class="cls-3" d="M427.45,504.34c-1.24.92-2.41,1.73-3.5,2.45q-21.36,16.05-49.31,16.61,77,63.21,171.25,124,7.29-9.72,14.68-18.64h0c-.67.12-1.36.21-2.09.27q-10.1-.25-13.54-2.19Q527.81,620,504.85,601q-31.44-26.22-50.92-51.18a202.64,202.64,0,0,1-26.47-45.47Z" transform="translate(-270.79 -157.37)"/><path class="cls-3" d="M345.92,430.18q22.14,17.79,27.55,27.59a17,17,0,0,1,2.18,8.7,18.85,18.85,0,0,1-.48,3.75,59.1,59.1,0,0,1-2,6.53,16.25,16.25,0,0,0-.66,2.88,1.83,1.83,0,0,0-.08.48q2.42-1.62,4-6.39a94.66,94.66,0,0,0,3-14.67,10.11,10.11,0,0,0-4.49-9.94l-29-18.93Z" transform="translate(-270.79 -157.37)"/><path class="cls-3" d="M659.61,632.56a174.35,174.35,0,0,1,6.82,24.12q2.45,11.77,3,36.69l33.08,17.38L752,701.1Q734.82,689,731.05,680.89q-4.31-7.2-4.29-24.64h0l-26.58,2.14-40.57-25.83Z" transform="translate(-270.79 -157.37)"/><path class="cls-8" d="M530.07,509.34Q523,535.28,517,544q-7.41,13-23.23,22.41Q483.23,572.8,464.43,578q-12.26-7.71-20.27-10a37.09,37.09,0,0,0-8.94-1.14,32,32,0,0,0-4.71.35q22.19,16.66,45.59,33.15,0-4.51-7.59-18.57,23.07-7.08,30.86-12.13,7.19-3.65,15.77-13.82,11-13.81,18.65-38.28l-1.88-4.2,1.88,4.2h0l-3.71-8.28Z" transform="translate(-270.79 -157.37)"/><path class="cls-8" d="M700.14,650.68l1.07,39.86q-6.83,4-8.72,6.51a16.57,16.57,0,0,0-3.12,6.82h0l13.1,6.88,10.92-2.13.92-.18h0a10,10,0,0,0,.59-3.75,11.76,11.76,0,0,0-2.19-6.68q-2.46-3.53-8.76-8l.38-38.91-3.28-.35Z" transform="translate(-270.79 -157.37)"/></g><path class="cls-1" d="M729.33,815.9q-.36,3-.8,6.17c-18.66.57-40,2-40.26,2h0C699.14,814.88,729.33,815.9,729.33,815.9Z" transform="translate(-270.79 -157.37)"/><path class="cls-12" d="M697,820.88l-7.13,2.29A22.26,22.26,0,0,1,697,820.88Z" transform="translate(-270.79 -157.37)"/><path class="cls-5" d="M780.86,861.93s-21.81,1.41-36.77,1.52c-1.68,0-3.28,0-4.75,0-14.53-.25-49.52-3.75-60.2-6-6-1.26-6.12-12.21-1.14-21.84a34.35,34.35,0,0,1,2.62-4.26h0a26.82,26.82,0,0,1,9.24-8.16l6.08-2a11.2,11.2,0,0,1,2.45-.49l.61-.05c7.11-.39,42.41-3.49,59.91,3.51,7.59,3,14.13,9.61,18.49,16.48C783.08,849.63,785.06,859.1,780.86,861.93Z" transform="translate(-270.79 -157.37)"/><path class="cls-3" d="M679.14,857.43c10.68,2.25,45.67,5.75,60.21,6,1.46,0,3.06,0,4.74,0a56,56,0,0,0-12.26-19.29c-9.6-9.88-25.71-18.7-51.21-12.83h0a34.35,34.35,0,0,0-2.62,4.26C673,845.22,673.17,856.17,679.14,857.43Z" transform="translate(-270.79 -157.37)"/><path class="cls-12" d="M777.41,840.66l-45.58,3.5c-9.6-9.88-25.71-18.7-51.2-12.83a26.82,26.82,0,0,1,9.24-8.16l7.13-2.29q1-.15,2-.21c7.11-.39,42.41-3.49,59.91,3.51C766.51,827.22,773.05,833.79,777.41,840.66Z" transform="translate(-270.79 -157.37)"/><path class="cls-1" d="M455.25,865.1S444.6,841.24,399.62,842L396,850.87Z" transform="translate(-270.79 -157.37)"/><path class="cls-3" d="M391,389.76s-55.37,11.07-58.46,16.73h0a80.93,80.93,0,0,1,2.65-10.37L385,388.33Z" transform="translate(-270.79 -157.37)"/><path class="cls-5" d="M457.06,899.14c-13.07,2.93-55.88,7.5-73.66,7.83-1.8,0-3.75,0-5.8,0-18.31-.13-45-2-45-2-5.13-3.69-2.71-16,4.24-27.74,5.33-9,13.32-17.54,22.62-21.5,21.41-9.13,64.6-5.08,73.3-4.57.84,0,1.66.14,2.46.26a26.2,26.2,0,0,1,8.72,3,33.82,33.82,0,0,1,11.32,10.65h0a44.74,44.74,0,0,1,3.21,5.56C464.55,883.22,464.36,897.5,457.06,899.14Z" transform="translate(-270.79 -157.37)"/><path class="cls-3" d="M457.06,899.14c-13.07,2.93-55.88,7.5-73.66,7.83-1.8,0-3.75,0-5.8,0a73.86,73.86,0,0,1,15-25.16c11.75-12.88,31.46-24.39,62.66-16.73h0a44.74,44.74,0,0,1,3.21,5.56C464.55,883.22,464.36,897.5,457.06,899.14Z" transform="translate(-270.79 -157.37)"/><path class="cls-12" d="M455.25,865.1c-31.2-7.66-50.91,3.85-62.66,16.73l-55.76-4.56c5.33-9,13.32-17.54,22.62-21.5,21.41-9.13,64.6-5.08,73.3-4.57.84,0,1.66.14,2.46.26l8.72,3A33.82,33.82,0,0,1,455.25,865.1Z" transform="translate(-270.79 -157.37)"/><path class="cls-13" d="M473.66,322l-41,4.7c-5.41,1.46-11,1.56-16.54,2.27-11.86,1.53-23.75,2.79-35.63,4.15a11,11,0,0,1-1.79-.06c-.84-1.87.62-3,1.34-4.25q20.19-34.59,40.49-69.12c4.53-7.73,9-15.49,13.59-23.2.27-.45.51-.9.75-1.35l0-.07a15,15,0,0,1,1-1.73l.05-.05,1.62-2.72h0a2,2,0,0,1,.7-1.15l1.74-2.88.12-.21,22.16-38.05a8.92,8.92,0,0,0,.52-1.08,1.12,1.12,0,0,0,.2-.55c0-.18-.17-.34-.47-.84a30.43,30.43,0,0,0-3-1q-43.49-10.12-87-20.17c-1.86-.43-3.78-1.4-6-.38-.33.86-.69,1.77-1,2.69q-15.4,41.88-30.83,83.73-7.37,19.95-14.83,39.83c-1.75,4.86-3.47,9.73-5.25,14.58q-8.65,23.6-17.34,47.18c-.69,1.87-1.45,3.72-2.18,5.57-4.68,12.88-9.4,25.75-14,38.66-1.2,3.33-3,6.5-3.22,10,1.18,1.64,2.61,1.06,3.93.86q16.18-2.52,32.36-5.09c1.56-.34,3.11-.76,4.68-1q44.63-7.14,89.29-14.22c1.52-.24,3.09-.82,4.92.06.19,2.23-1.12,4.09-1.9,6q-31.14,77.79-62.36,155.56c-.59,1.48-1.13,3-1.73,4.46a2,2,0,0,0,1.13,2.89,1.9,1.9,0,0,0,2.59-.67c.92-1.31,1.78-2.65,2.66-4l70.74-107.58c1.1-1.65,2.32-3.22,3.49-4.83,4.51-7,9-14,13.55-20.91q15-22.86,30.19-45.64c5.39-8.35,10.75-16.71,16.17-25,5.21-8,10.49-15.94,15.73-23.93a11.22,11.22,0,0,0,2.3-4.71C494.8,319.85,484.23,320.92,473.66,322Z" transform="translate(-270.79 -157.37)"/><polygon class="cls-14" points="98.14 10.16 186.91 30.73 67.44 202.62 200.71 182.2 82.32 390.92 149.34 223.75 12.7 244.75 98.14 10.16"/><path class="cls-5" d="M389.8,445.21s12.32.49,17-6.67c5.3-8.16,8.55-20.29-2.22-34.28Z" transform="translate(-270.79 -157.37)"/><path class="cls-11" d="M333.45,517.09l2,.76q12.79,5.28,21.82,5.81,8,.69,24.38-4,1.89-11.42,1.48-16.57a41.93,41.93,0,0,0-1.45-8.62,9.57,9.57,0,0,0-7.58-7,142.77,142.77,0,0,1-18.56-4.36q-8.46-2.54-26.84-10.72-1.71,14.82-.75,21a141,141,0,0,0,5.53,23.74" transform="translate(-270.79 -157.37)"/><path class="cls-3" d="M344.87,479.22l12.86,7.48a41.82,41.82,0,0,0,8.93,3.85q7.9,2.37,10.24,5.19a16.22,16.22,0,0,1,4.29,8.8q.78,2.61,1,11.16A63.32,63.32,0,0,0,383.1,503a42.09,42.09,0,0,0-1.54-8.94,9,9,0,0,0-7.16-6.63,144.7,144.7,0,0,1-18.89-4.42q-4.14-1.24-10.64-3.83Z" transform="translate(-270.79 -157.37)"/><path class="cls-3" d="M411.51,427.11q-1.69,9.17-7,13.69,2.2-9.19,2.21-10.14c0-.07,0-.11,0-.11h0a37.75,37.75,0,0,0,.28-6.8q-.17-7.2-5-15a58.55,58.55,0,0,0-6.16-7.85q-1.15-1.75-10.8-10.16l6-.95q7.53,7.78,18.88,20.37a8.8,8.8,0,0,1,2.27,5.69A61.39,61.39,0,0,1,411.51,427.11Z" transform="translate(-270.79 -157.37)"/><path class="cls-5" d="M502.33,421.33c-2.08,7.16-3.94,13.62-14.65,23.07h-.57c-10.44.19-16.24.82-21.57-.27q-7.4-1.31-19.25-7.32s-22.65-57.65,13.24-73c5.26-2.25,11.79-3.59,19.84-3.7h0c.83.3,1.6.58,2.29.85,1.1.41,2.15.84,3.16,1.29l.58.22v0A33.7,33.7,0,0,1,494,368q2.54,2,5.41,7.82a61.84,61.84,0,0,1,3.23,10.73A188.75,188.75,0,0,1,504.08,406,55.72,55.72,0,0,1,502.33,421.33Z" transform="translate(-270.79 -157.37)"/><path class="cls-15" d="M502.33,421.33c-2.08,7.16-3.94,13.62-14.65,23.07h-.57c16.2-51.82-7.72-84.26-7.72-84.26.83.3,1.6.58,2.29.85,1.1.41,2.15.84,3.16,1.29l.58.22v0A33.7,33.7,0,0,1,494,368q2.54,2,5.41,7.82a61.84,61.84,0,0,1,3.23,10.73A188.75,188.75,0,0,1,504.08,406,55.72,55.72,0,0,1,502.33,421.33Z" transform="translate(-270.79 -157.37)"/><path class="cls-10" d="M656.5,619.68v3.5c-5.94,14.19-10.62,20.73-28.57,21.79-3.12.19-6.65.21-10.65.07a46.69,46.69,0,0,1-38.5-22.2h0l4.72-.43,7.83,4.21,24.6,8.64,31.75-3.83,8.16-10.86Z" transform="translate(-270.79 -157.37)"/><polygon class="cls-3" points="384.29 469.08 392.28 468.58 390.25 463.9 383.96 463.58 384.29 469.08"/><g id="layer10"><path class="cls-4" d="M644.74,676.39l-.77,5a37.32,37.32,0,0,1-16.23,23.18,36.3,36.3,0,0,1-22.92,5.77,45.17,45.17,0,0,1-5.51-.75,37.32,37.32,0,0,1-23.18-16.23q-8.13-12.58-5-28.42a37.33,37.33,0,0,1,16.23-23.19,35.88,35.88,0,0,1,17-5.76,42.72,42.72,0,0,1,11.43.74,37.46,37.46,0,0,1,27.31,24.9l1.2,4.73A37.42,37.42,0,0,1,644.74,676.39Z" transform="translate(-270.79 -157.37)"/></g><g id="layer10-2" data-name="layer10"><path class="cls-1" d="M638.82,676.39l-.78,5a37.32,37.32,0,0,1-16.23,23.18,35.89,35.89,0,0,1-17,5.77,45.17,45.17,0,0,1-5.51-.75,37.32,37.32,0,0,1-23.18-16.23q-8.13-12.58-5-28.42a37.33,37.33,0,0,1,16.23-23.19,35.88,35.88,0,0,1,17-5.76,47,47,0,0,1,5.5.74,37.46,37.46,0,0,1,27.31,24.9l1.2,4.73A37.84,37.84,0,0,1,638.82,676.39Z" transform="translate(-270.79 -157.37)"/></g><path class="cls-16" d="M616,669.27l-4.22.48a12.18,12.18,0,0,1-1.7.23c-1.22.16-2.45.29-3.67.43a.55.55,0,0,1-.18,0c-.09-.19.06-.31.14-.43q2.07-3.57,4.16-7.12c.47-.79.93-1.59,1.4-2.39,0,0,.05-.09.08-.14h0c0-.06.07-.13.11-.18h0l.16-.28h0a.19.19,0,0,1,.07-.11l.18-.3,0,0,2.28-3.92,0-.11a.14.14,0,0,0,0-.06s0,0,0-.08a2.68,2.68,0,0,0-.31-.11l-8.95-2.07a.83.83,0,0,0-.62,0c0,.09-.07.18-.11.27q-1.58,4.32-3.17,8.62c-.5,1.37-1,2.74-1.53,4.1-.18.5-.35,1-.54,1.5l-1.78,4.86c-.07.19-.15.38-.23.57l-1.44,4a4.41,4.41,0,0,0-.33,1c.13.17.27.11.41.09l3.33-.52.48-.11,9.19-1.46a.69.69,0,0,1,.51,0,1.37,1.37,0,0,1-.2.62q-3.19,8-6.42,16c-.06.15-.11.31-.17.46a.2.2,0,0,0,.11.3.21.21,0,0,0,.27-.07l.27-.41,7.28-11.08.36-.5c.47-.71.93-1.43,1.4-2.15,1-1.57,2.07-3.13,3.11-4.7.55-.86,1.1-1.72,1.66-2.57l1.62-2.47a1.14,1.14,0,0,0,.24-.48Z" transform="translate(-270.79 -157.37)"/><path class="cls-10" d="M802,671.4Q785,690,768.29,688.52a16.58,16.58,0,0,1-9.4-4.46S775,688.28,802,671.4Z" transform="translate(-270.79 -157.37)"/><path class="cls-10" d="M747.27,666.94l27.07-1.82-24.53,6.26S747.54,668.47,747.27,666.94Z" transform="translate(-270.79 -157.37)"/><path class="cls-10" d="M741.49,657.26l36.13-21.18L742,652.69S741.46,657.08,741.49,657.26Z" transform="translate(-270.79 -157.37)"/><path class="cls-10" d="M745.11,630.82l24.2-11-26.87,7.55A32.06,32.06,0,0,0,745.11,630.82Z" transform="translate(-270.79 -157.37)"/><path class="cls-10" d="M727.16,618.34s10.41,17.74-3.3,34.2l6.42-.5s6.26-34,5.57-34.2A42.08,42.08,0,0,0,727.16,618.34Z" transform="translate(-270.79 -157.37)"/><path class="cls-1" d="M655.09,626.46l-79.22-15.18a34.33,34.33,0,0,0,9.36,4.76c8.87,2.83,51.14,10.06,63.82,10.22Z" transform="translate(-270.79 -157.37)"/><path class="cls-16" d="M640.88,503c-2.2-1.13-4.23-3-6.35-4.29-2.42-1.5-4.9-2.9-7.42-4.2-11.32-5.82-23.85-9.87-36-13.54a3.63,3.63,0,1,1,2.1-6.94A331.54,331.54,0,0,1,625,485.52c-6.34-6.06-14.39-12.19-23.24-15.21a3.62,3.62,0,0,1,2.34-6.86c11.58,3.95,21.38,11.89,29.74,20.63q3.42,3.57,6.54,7.41c1.73,2.13,4.26,4.56,5.13,7.22S643.56,504.34,640.88,503Z" transform="translate(-270.79 -157.37)"/><path class="cls-17" d="M642.3,504.71a4.47,4.47,0,0,1-2.06-.5h0a29.31,29.31,0,0,1-3.93-2.59c-.87-.64-1.69-1.24-2.52-1.76-2.38-1.47-4.84-2.87-7.33-4.15-11.5-5.92-24.49-10-35.76-13.44a5,5,0,0,1-3.35-6.27,5,5,0,0,1,6.27-3.35c2.39.73,12.94,4,24.09,8.35a56.2,56.2,0,0,0-16.39-9.37,5,5,0,0,1-.58-9.26,5,5,0,0,1,3.83-.24c10.22,3.48,20.13,10.34,30.3,21,2.3,2.4,4.53,4.92,6.62,7.5.37.46.79.93,1.23,1.44,1.58,1.82,3.38,3.89,4.14,6.22v0a5,5,0,0,1-1.63,5.31A4.56,4.56,0,0,1,642.3,504.71Zm-.78-3a1.67,1.67,0,0,0,1.92-.25,2.26,2.26,0,0,0,.75-2.33c-.59-1.79-2.18-3.62-3.59-5.24-.45-.52-.88-1-1.29-1.51-2-2.52-4.22-5-6.46-7.33-9.86-10.31-19.4-16.94-29.18-20.27a2.23,2.23,0,0,0-1.7.11,2.19,2.19,0,0,0-1.12,1.27,2.23,2.23,0,0,0,.11,1.7,2.19,2.19,0,0,0,1.27,1.12C610,471.62,618,476.85,626,484.51L631.7,490l-7.24-3.15a322.26,322.26,0,0,0-31.66-11.47,2.22,2.22,0,1,0-1.29,4.24c11.39,3.44,24.52,7.61,36.24,13.64,2.55,1.31,5.08,2.74,7.52,4.26.93.57,1.83,1.24,2.7,1.88A27.5,27.5,0,0,0,641.52,501.71Z" transform="translate(-270.79 -157.37)"/><path class="cls-16" d="M644.68,557.18a66.21,66.21,0,0,1-23.27-10.41,3,3,0,1,1,3.64-4.81c.26.19,17.27,12.73,37.25,10.27a3,3,0,0,1,.74,6A53.34,53.34,0,0,1,644.68,557.18Z" transform="translate(-270.79 -157.37)"/><path class="cls-17" d="M656.94,560a56.86,56.86,0,0,1-12.57-1.44,68.1,68.1,0,0,1-23.81-10.66,4.42,4.42,0,0,1,5.34-7c.15.12,16.86,12.38,36.23,10a4.42,4.42,0,0,1,4,7.11,4.35,4.35,0,0,1-2.94,1.66A50.26,50.26,0,0,1,656.94,560Zm-33.71-17.24H623a1.63,1.63,0,0,0-1.07.63,1.61,1.61,0,0,0,.32,2.26A64.5,64.5,0,0,0,645,555.81h0a51.8,51.8,0,0,0,17.88,1,1.62,1.62,0,0,0,1.4-1.8,1.62,1.62,0,0,0-1.8-1.41c-10.64,1.31-20.41-1.58-26.73-4.24a58.75,58.75,0,0,1-11.53-6.3A1.61,1.61,0,0,0,623.23,542.75Z" transform="translate(-270.79 -157.37)"/><ellipse class="cls-16" cx="707.46" cy="507.69" rx="26.31" ry="19.22" transform="translate(-287.49 833.89) rotate(-69.4)"/><path class="cls-17" d="M703.33,534.65a15.93,15.93,0,0,1-5.63-1c-5.23-2-9.09-6.56-10.86-12.93a34.93,34.93,0,0,1,13.67-36.38c5.53-3.63,11.46-4.54,16.7-2.58s9.09,6.57,10.87,12.94a33,33,0,0,1-1.32,20.26h0a33.12,33.12,0,0,1-12.36,16.12A20.25,20.25,0,0,1,703.33,534.65Zm8.27-51.11c-8.11,0-16.78,7.11-20.82,17.88A30.26,30.26,0,0,0,689.54,520c1.52,5.48,4.78,9.41,9.15,11.06s9.41.83,14.17-2.3A30.26,30.26,0,0,0,724.14,514h0c4.83-12.86,1.28-26.13-7.92-29.59A13.1,13.1,0,0,0,711.6,483.54Z" transform="translate(-270.79 -157.37)"/></svg>